ply
format ascii 1.0
comment Created by Blender 2.79 (sub 0) - www.blender.org, source file: 'light.blend'
element vertex 20
property float x
property float y
property float z
property float nx
property float ny
property float nz
property float s
property float t
element face 5
property list uchar uint vertex_indices
end_header
0.250000 0.800000 -0.200000 0.000000 0.000000 -1.000000 0.468749 0.296875
0.250000 -0.800000 -0.200000 0.000000 0.000000 -1.000000 0.468750 0.921875
-0.250000 -0.800000 -0.200000 0.000000 0.000000 -1.000000 0.078125 0.921875
-0.250000 0.800000 -0.200000 0.000000 0.000000 -1.000000 0.078125 0.296875
0.250000 0.800000 -0.200000 1.000000 -0.000000 0.000001 0.468749 0.296875
0.250001 0.799999 0.000000 1.000000 -0.000000 0.000001 0.546874 0.296875
0.249999 -0.800001 0.000000 1.000000 -0.000000 0.000001 0.546875 0.921875
0.250000 -0.800000 -0.200000 1.000000 -0.000000 0.000001 0.468750 0.921875
0.250000 -0.800000 -0.200000 -0.000001 -1.000000 -0.000001 0.468750 0.921875
0.249999 -0.800001 0.000000 -0.000001 -1.000000 -0.000001 0.468751 0.999932
-0.250000 -0.800000 0.000000 -0.000001 -1.000000 -0.000001 0.078126 0.999933
-0.250000 -0.800000 -0.200000 -0.000001 -1.000000 -0.000001 0.078125 0.921875
-0.250000 -0.800000 -0.200000 -1.000000 0.000000 -0.000001 0.078125 0.921875
-0.250000 -0.800000 0.000000 -1.000000 0.000000 -0.000001 -0.000000 0.921875
-0.250000 0.800000 0.000000 -1.000000 0.000000 -0.000001 -0.000000 0.296875
-0.250000 0.800000 -0.200000 -1.000000 0.000000 -0.000001 0.078125 0.296875
0.250001 0.799999 0.000000 0.000001 1.000000 0.000002 0.468749 0.218750
0.250000 0.800000 -0.200000 0.000001 1.000000 0.000002 0.468749 0.296875
-0.250000 0.800000 -0.200000 0.000001 1.000000 0.000002 0.078125 0.296875
-0.250000 0.800000 0.000000 0.000001 1.000000 0.000002 0.078124 0.218750
4 0 1 2 3
4 4 5 6 7
4 8 9 10 11
4 12 13 14 15
4 16 17 18 19
